<?xml version="1.0" encoding="UTF-8" standalone="no"?>
<!-- Created with Inkscape (http://www.inkscape.org/) -->
<svg id="svg2" xmlns:rdf="http://www.w3.org/1999/02/22-rdf-syntax-ns#" xmlns="http://www.w3.org/2000/svg" height="128" width="128" version="1.0" xmlns:cc="http://web.resource.org/cc/" xmlns:xlink="http://www.w3.org/1999/xlink" xmlns:dc="http://purl.org/dc/elements/1.1/">
 <metadata id="metadata7">
  <rdf:RDF>
   <cc:Work rdf:about="">
    <dc:format>image/svg+xml</dc:format>
    <dc:type rdf:resource="http://purl.org/dc/dcmitype/StillImage"/>
   </cc:Work>
  </rdf:RDF>
 </metadata>
 <defs id="defs5">
  <linearGradient id="linearGradient3144" y2="85.698" gradientUnits="userSpaceOnUse" x2="278.47" gradientTransform="translate(-139.76 -.34209)" y1="-46.335" x1="142.81">
   <stop id="stop3140" stop-color="#fff" stop-opacity=".47423" offset="0"/>
   <stop id="stop3142" stop-color="#fff" stop-opacity="0" offset="1"/>
  </linearGradient>
  <radialGradient id="radialGradient5115" gradientUnits="userSpaceOnUse" cy="-24.281" cx="40.45" gradientTransform="matrix(1 0 0 .49456 .15134 15.858)" r="52.711">
   <stop id="stop5111" stop-color="#cadfff" offset="0"/>
   <stop id="stop5113" stop-color="#cadfff" stop-opacity=".21649" offset="1"/>
  </radialGradient>
  <linearGradient id="linearGradient9001" y2="56.377" gradientUnits="userSpaceOnUse" x2="17.286" gradientTransform="translate(.80090 -1.0797)" y1="51.335" x1="9.6032">
   <stop id="stop8997" stop-color="#fff" stop-opacity=".72165" offset="0"/>
   <stop id="stop8999" stop-color="#8bd2ff" stop-opacity=".20619" offset="1"/>
  </linearGradient>
  <linearGradient id="linearGradient10949" y2="76.263" gradientUnits="userSpaceOnUse" x2="14.35" gradientTransform="translate(.72559 .87793)" y1="65.278" x1="8.7302">
   <stop id="stop10945" stop-color="#fff" offset="0"/>
   <stop id="stop10947" stop-color="#57bdff" stop-opacity="0" offset="1"/>
  </linearGradient>
  <radialGradient id="radialGradient12928" gradientUnits="userSpaceOnUse" cy="151.84" cx="64.594" gradientTransform="matrix(.63693 -.029442 .016937 .36641 20.202 58.53)" r="55.682">
   <stop id="stop12924" stop-color="#fff" offset="0"/>
   <stop id="stop12926" stop-color="#fff" stop-opacity=".21649" offset="1"/>
  </radialGradient>
  <radialGradient id="radialGradient3176" gradientUnits="userSpaceOnUse" cy="46.995" cx="-27.1" gradientTransform="matrix(.38856 -.0013790 .0012819 .48243 -16.685 24.847)" r="25.294">
   <stop id="stop3172" stop-color="#fff" offset="0"/>
   <stop id="stop3174" stop-color="#fff" stop-opacity="0" offset="1"/>
  </radialGradient>
 </defs>
 <path id="path10975" d="m103.89 62.133a34.971 34.971 0 1 1 -69.938 0 34.971 34.971 0 1 1 69.938 0z" transform="matrix(1.6019 0 0 1.6408 -46.581 -40.492)" fill="#3095ff"/>
 <path id="path3153" d="m-3.0557 46.175a25.294 24.785 0 1 1 -50.589 0 25.294 24.785 0 1 1 50.589 0z" transform="matrix(3.2533 0 0 2.815 156.64 -38.472)" fill="url(#radialGradient3176)"/>
 <path id="path4115" d="m8.2967 57.021c4.1613-55.176 74.987-75.251 105.42-22.069-30.951-28.605-74.829-38.943-105.42 22.069z" fill-rule="evenodd" fill="url(#radialGradient5115)"/>
 <path id="path2165" d="m13.366 36.666c7.807 21.137 46.301 50.404 105.93 36.329 3.31-19.567-4.48-56.097-40.576-66.716-26.902-7.9143-54.854 7.787-65.358 30.387z" fill-rule="evenodd" fill="url(#linearGradient3144)"/>
 <path id="path6086" d="m13.765 43.853c-1.567 4.917-2.795 14.027-2.641 21.607 1.274 0.987 1.197 1.351 4.082 1.441 1.302-7.347 2.355-14.753 2.4-20.047 0.015-1.726-3.56-3.883-3.841-3.001z" fill-rule="evenodd" fill="url(#linearGradient9001)"/>
 <path id="path9003" d="m11.289 69.578c-0.267 2.001-0.731 3.522 0 5.282 0.27 0.333 2.034 1.762 3.241 2.281 0.554-1.956 0.708-4.032 0.36-5.522-1.178-1.359-2.556-2.091-3.601-2.041z" fill-rule="evenodd" fill="url(#linearGradient10949)"/>
 <path id="path2161" d="m64.344 2.375c-33.267 0-60.282 27.546-60.282 61.469 0.0005 33.922 27.015 61.436 60.282 61.436 33.266 0 60.246-27.514 60.246-61.436 0-33.923-26.98-61.469-60.246-61.469zm-0.5 1.6875c30.923 0 55.996 25.732 55.996 57.406s-25.073 57.372-55.996 57.372c-30.924 0-56.032-25.698-56.032-57.371 0.0005-31.674 25.108-57.406 56.032-57.406z" fill="#002d8d"/>
 <path id="path10978" d="m-130.12-2.1227c-7.03 11.565 6.9 17.082 12.48 12.004 11.03-20.847 39.386 3.3587 7.2 12.484-2.28 1.201-3.72 2.401-4.08 3.602l-0.24 16.325c1.76 5.021 4.2 3.919 5.11 4.421 2.57-0.127 5.3 0.052 7.86-0.1 1.825-0.773 2.807-2.222 3.358-5.041l0.24-6.963c49.713-17.067 1.913-75.797-31.928-36.732z" fill-rule="evenodd" fill="#fff"/>
 <path id="path10980" d="m211.51 99.431a9.003 8.6428 0 1 1 -18.01 0 9.003 8.6428 0 1 1 18.01 0z" transform="matrix(1.0267 0 0 1.0139 -299.02 -26.709)" fill="#fff"/>
 <path id="path11951" d="m8.6578 71.639c22.535 65.191 105.52 45.101 110.51-2.037-14.03 41.928-75.939 63.198-110.51 2.037z" fill-rule="evenodd" fill="url(#radialGradient12928)"/>
 <path id="path16808" fill="none" d="m176.72 42.615c3.71 5.167 9.63 2.936 13.41 0-3.4 5.755-11.17 7.884-13.41 0z"/>
 <text id="text2193" xml:space="preserve" font-size="12px" y="176.01575" x="-53.29747" font-family="Verdana" fill="#000000"><tspan id="tspan2195" x="-53.29747" y="176.01575"/></text>
 <path id="path2199" d="m71.771 96.49a9.7669 8.883 0 1 1 -19.533 0 9.7669 8.883 0 1 1 19.533 0z" transform="matrix(1.0271 0 0 1.1692 .17278 -15.173)" fill="#fff"/>
 <path id="path3173" d="m56.038 77.619c9.434 12.28 17.762-0.838 16.706-6.895 28.896-8.794 23.803-37.273 7.302-46.949-16.5-9.676-45.644-0.726-41.332 21.67 1.922 6.862 11.433 3.678 15.38-1.944 16.642-17.037 28.196 8.088 8.308 12.374-4.805 0.269-7.156 2.501-7.248 6.541 0.087 5.206-0.492 10.856 0.884 15.203z" fill-rule="evenodd" fill="#fff"/>
 <path id="path5149" d="m38.519 44.519c1.584 7.686 10.316 5.073 15.105-0.377-3.699 10.324-14.074 8.619-15.105 0.377zm17.713 33.487c3.405 9.936 13.218 6.276 13.944 1.135-5.555 7.034-10.971 2.308-13.944-1.135zm-0.975 25.124c4.161 7.01 15.334 6.5 18.324-2.46-0.661 9.76-15.144 12.06-18.324 2.46z" fill-opacity=".20419" fill-rule="evenodd"/>
</svg>
